<?xml version="1.0" encoding="utf-8"?>
<svg version="1.1" xmlns="http://www.w3.org/2000/svg" xmlns:xlink="http://www.w3.org/1999/xlink" x="0px" y="0px"
	 viewBox="0 0 400 400" style="enable-background:new 0 0 400 400;" xml:space="preserve">
<style type="text/css">
	.st0{fill:#C9C9C9;}
</style>
<g>
	<path class="st0" d="M266.8,287.5H103.2c-7,0-13.6-2.8-18.6-7.4l46.4-57.8c2.5-3.1,6-4.9,9.9-5s7.4,1.4,10.1,4.3l4.1,4.5
		c5.4,6,12.9,9,20.8,8.6c7.8-0.6,14.9-4.7,19.5-11.4l23.4-33.9c2.5-3.6,6.5-5.8,10.8-5.9h0.1c4.3,0,8.2,2.1,10.8,5.8l24.2,34.4
		c2.1,3.1,6.2,3.6,9,1.4c2.8-2.2,3.4-6.5,1.3-9.4l-24.2-34.4c-5-7-12.7-11.2-21-11.2h-0.5c-8.5,0.1-16.1,4.2-21,11.4l-23.4,34.1
		c-2.3,3.4-6,5.5-10,5.8c-4,0.2-7.9-1.3-10.6-4.3l-4.1-4.5c-5.2-5.6-12.3-8.8-19.7-8.6s-14.4,3.8-19.3,9.7L77,268.8
		c-1.3-3.4-2-7-2-10.9V142.3c0-16.4,12.6-29.7,28.2-29.7h180.7c15.5,0,28.2,13.3,28.2,29.7v57.2c0,3.8,2.8,6.8,6.5,6.8
		c3.5,0,6.5-3.1,6.5-6.8v-57.2c0-23.8-18.3-43.2-41-43.2h-181c-22.7,0-41,19.4-41,43.2v115.5c0,23.8,18.3,43.2,41,43.2h163.6
		c3.5,0,6.5-3.1,6.5-6.8C273.1,290.5,270.3,287.5,266.8,287.5L266.8,287.5z"/>
	<path class="st0" d="M334.1,273.4l-11.7-11.7l12.1-12.1c4.3-4.3,4.5-11.2,0.5-15.1c-4-4-10.9-3.9-15.1,0.5l-12.1,12.1l-12.1-12.1
		c-4.1-4.1-10.9-3.9-15.1,0.5c-4.3,4.3-4.5,11.2-0.5,15.1l12,12l-12.1,12c-4.3,4.3-4.5,11.2-0.5,15.1c4,4,10.9,3.9,15.1-0.5
		l12.1-12.1l11.7,11.7c4.1,4.1,10.9,3.9,15.1-0.5S338.2,277.4,334.1,273.4z M122.8,169.9c-11,0-20.1-9-20.1-20.1
		c0-11.1,9-20.1,20.1-20.1s20.1,9,20.1,20.1C142.9,160.9,133.8,169.9,122.8,169.9z M122.8,141.7c-4.5,0-8.1,3.6-8.1,8.1
		s3.6,8.1,8.1,8.1s8.1-3.6,8.1-8.1C130.9,145.4,127.3,141.7,122.8,141.7z"/>
</g>
</svg>
