<?xml version="1.0" encoding="utf-8"?>
<svg version="1.1" xmlns="http://www.w3.org/2000/svg" xmlns:xlink="http://www.w3.org/1999/xlink" x="0px" y="0px"
	 viewBox="0 0 400 400" style="enable-background:new 0 0 400 400;" xml:space="preserve">
<style type="text/css">
	.st0{fill:#C9C9C9;}
</style>
<g>
	<path class="st0" d="M307.1,287.4H109.5c-7,0-13.6-2.8-18.6-7.4l46.4-57.8c2.5-3.1,6-4.9,9.9-5c3.9-0.1,7.4,1.4,10.1,4.3l4.1,4.5
		c5.4,6,12.9,9,20.8,8.6c7.8-0.6,14.9-4.7,19.5-11.4l23.4-33.9c2.5-3.6,6.5-5.8,10.8-5.9h0.1c4.3,0,8.2,2.1,10.8,5.8l24.2,34.4
		c2.1,3.1,6.2,3.6,9,1.4c2.8-2.2,3.4-6.5,1.3-9.4l-24.2-34.4c-5-7-12.7-11.2-21-11.2h-0.5c-8.5,0.1-16.1,4.2-21,11.4l-23.4,34.1
		c-2.3,3.4-6,5.5-10,5.8c-4,0.2-7.9-1.3-10.6-4.3l-4.1-4.5c-5.2-5.6-12.3-8.8-19.7-8.6c-7.4,0.2-14.4,3.8-19.3,9.7l-44.2,55.1
		c-1.3-3.4-2-7-2-10.9V142.3c0-16.4,12.6-29.7,28.2-29.7h180.7c15.5,0,28.2,13.3,28.2,29.7v117.2c0,3.8,2.8,6.8,6.5,6.8
		c3.5,0,6.5-3.1,6.5-6.8V142.3c0-23.8-18.3-43.2-41-43.2h-181c-22.7,0-41,19.4-41,43.2v115.4c0,23.8,18.3,43.2,41,43.2h197.6
		c3.5,0,6.5-3.1,6.5-6.8C313.4,290.5,310.6,287.4,307.1,287.4L307.1,287.4z"/>
	<path class="st0" d="M129.1,169.9c-11,0-20.1-9-20.1-20.1s9-20.1,20.1-20.1s20.1,9,20.1,20.1S140.2,169.9,129.1,169.9z
		 M129.1,141.7c-4.5,0-8.1,3.6-8.1,8.1s3.6,8.1,8.1,8.1c4.5,0,8.1-3.6,8.1-8.1S133.6,141.7,129.1,141.7z"/>
</g>
</svg>
